<svg width="60" height="51" viewBox="0 0 60 51" fill="none" xmlns="http://www.w3.org/2000/svg">
<path d="M44.2128 18.4283C44.2128 20.5096 44.2861 22.5785 44.1883 24.6598C44.0905 27.0277 44.7997 29.0591 46.267 30.8537C46.4382 31.0656 46.5972 31.2774 46.7438 31.5018C47.2698 32.312 47.1719 32.8727 46.4504 33.4959C44.9096 34.817 43.3812 36.1504 41.8405 37.4716C40.9234 38.2567 40.3487 38.2443 39.4194 37.4716C38.1722 36.4372 37.1939 35.166 36.3258 33.8074C36.1179 33.4835 36.0078 33.4959 35.7511 33.7451C34.2102 35.278 32.584 36.6988 30.5175 37.4092C27.326 38.5184 24.0856 38.6929 20.8818 37.5338C17.8004 36.4121 15.954 34.094 15.2692 30.8662C14.511 27.2644 14.9023 23.8371 17.0789 20.7838C18.7297 18.4782 21.0163 17.1197 23.6453 16.2847C26.3599 15.4373 29.16 15.1132 31.9724 14.8266C32.7673 14.7393 33.5499 14.6646 34.3446 14.5898C34.5402 14.5773 34.7115 14.5524 34.6992 14.2907C34.6749 12.9697 34.8093 11.6236 34.5036 10.3275C34.1123 8.67001 33.0484 7.69785 31.4222 7.33637C30.2605 7.07466 29.1111 7.14942 27.9861 7.53583C26.2742 8.13399 25.2103 9.34293 24.7824 11.1375C24.5501 12.1221 24.0976 12.4711 23.1561 12.3713C21.1507 12.1594 19.1453 11.9476 17.1522 11.7357C16.3329 11.6484 15.905 11.0128 16.0761 10.2027C17.1155 5.03067 20.4415 2.1268 25.2349 0.79326C28.9155 -0.228635 32.645 -0.290985 36.3378 0.768341C39.3092 1.6158 41.8038 3.11137 43.1977 6.07748C43.9926 7.75999 44.176 9.57951 44.2005 11.3991C44.2249 13.7299 44.2005 16.0853 44.2128 18.4283ZM34.6993 22.3168C34.6993 21.6936 34.675 21.0705 34.7116 20.4473C34.736 20.0609 34.6015 19.9238 34.2225 19.9612C33.2931 20.0484 32.3517 20.0609 31.4223 20.1855C29.796 20.3974 28.2063 20.8087 26.8857 21.8555C24.9658 23.3885 24.5624 25.4822 24.8802 27.8377C25.2593 30.6043 27.6805 32.1373 30.2728 31.2151C32.0336 30.5919 33.1096 29.271 33.8556 27.6133C34.6381 25.931 34.6993 24.1239 34.6993 22.3168Z" fill="#050606"/>
<path fill-rule="evenodd" clip-rule="evenodd" d="M30.1751 50.4448C20.8452 50.3825 12.4691 47.9399 4.89994 42.7927C3.35921 41.7457 1.89183 40.5991 0.497898 39.3405C0.375651 39.2283 0.253301 39.1162 0.155502 38.979C0.0209788 38.792 -0.0768194 38.5678 0.0821538 38.3434C0.241127 38.0941 0.510174 38.0692 0.742496 38.1814C1.28049 38.4431 1.79413 38.7297 2.31985 39.0039C7.13774 41.5961 12.2123 43.4656 17.5315 44.6495C22.3492 45.7213 27.2159 46.2199 32.1561 46.0827C39.2117 45.8834 46.0104 44.4376 52.5523 41.758C52.8703 41.621 53.2005 41.4839 53.5306 41.4091C53.9954 41.3218 54.46 41.3841 54.6679 41.8951C54.8635 42.3687 54.6067 42.7426 54.2643 43.0417C54.0197 43.2535 53.7385 43.428 53.4573 43.615C49.2386 46.4067 44.6164 48.2013 39.7253 49.3105C36.497 50.0585 33.22 50.4198 30.1751 50.4448Z" fill="#F6A61F"/>
<path fill-rule="evenodd" clip-rule="evenodd" d="M53.7144 39.3408C52.3082 39.3283 50.9143 39.5152 49.5202 39.6647C49.2512 39.6897 48.9455 39.7644 48.8233 39.4654C48.6766 39.1288 48.9578 38.9295 49.1901 38.7674C50.9265 37.596 52.8707 37.1349 54.9128 37.0227C56.319 36.9355 57.713 36.9979 59.0826 37.4215C59.7062 37.6084 60.0118 37.9823 59.9997 38.6304C59.9263 42.095 58.7891 45.1111 56.3313 47.5663C56.2457 47.6536 56.1479 47.7283 56.0501 47.8031C55.8301 47.9652 55.561 48.1146 55.3286 47.9153C55.1085 47.7283 55.2308 47.4541 55.3286 47.2298C56.0501 45.3978 56.7838 43.5783 57.1383 41.6216C57.1873 41.3723 57.1994 41.1231 57.2117 40.8862C57.2239 40.0761 56.9427 39.7272 56.1601 39.5278C55.3408 39.3034 54.5214 39.3408 53.7144 39.3408Z" fill="#F6A61F"/>
</svg>
