<svg width="60" height="72" viewBox="0 0 60 72" fill="none" xmlns="http://www.w3.org/2000/svg">
<path d="M50.1647 37.7311C50.1328 31.881 52.779 27.4655 58.135 24.2136C55.1382 19.9256 50.6111 17.5664 44.6334 17.1041C38.9745 16.6578 32.7896 20.4038 30.526 20.4038C28.135 20.4038 22.6514 17.2636 18.3475 17.2636C9.45271 17.407 0 24.3571 0 38.4963C0 42.6727 0.765143 46.9873 2.29543 51.44C4.33581 57.2901 11.7003 71.6366 19.3836 71.3975C23.4006 71.3018 26.238 68.5441 31.4665 68.5441C36.5356 68.5441 39.1658 71.3975 43.6451 71.3975C51.3921 71.2859 58.0553 58.2466 60 52.3805C49.6068 47.4867 50.1647 38.034 50.1647 37.7311ZM41.1424 11.5569C45.4942 6.39214 45.0956 1.68969 44.9681 0C41.1265 0.223167 36.6791 2.61424 34.1445 5.56323C31.3549 8.71945 29.7131 12.6249 30.0638 17.0244C34.2242 17.3433 38.0181 15.2072 41.1424 11.5569Z" fill="black"/>
</svg>
