<svg width="60" height="60" viewBox="0 0 60 60" fill="none" xmlns="http://www.w3.org/2000/svg">
<path d="M51 0H9C4.02944 0 0 4.02944 0 9V51C0 55.9706 4.02944 60 9 60H51C55.9706 60 60 55.9706 60 51V9C60 4.02944 55.9706 0 51 0Z" fill="#1877F2"/>
<path d="M41.6719 38.672L43.0078 30.0001H34.6875V24.3751C34.6875 22.0079 35.8477 19.6876 39.5742 19.6876H43.3594V12.3048C43.3594 12.3048 39.9258 11.7189 36.6445 11.7189C29.7891 11.7189 25.3125 15.8673 25.3125 23.3907V30.0001H17.6953V38.672H25.3125V60.0001H34.6875V38.672H41.6719Z" fill="white"/>
</svg>
