<svg width="60" height="60" viewBox="0 0 60 60" fill="none" xmlns="http://www.w3.org/2000/svg">
<path d="M59.4165 24.1245H57V24H30V36H46.9545C44.481 42.9855 37.8345 48 30 48C20.0595 48 12 39.9405 12 30C12 20.0595 20.0595 12 30 12C34.5885 12 38.763 13.731 41.9415 16.5585L50.427 8.073C45.069 3.0795 37.902 0 30 0C13.4325 0 0 13.4325 0 30C0 46.5675 13.4325 60 30 60C46.5675 60 60 46.5675 60 30C60 27.9885 59.793 26.025 59.4165 24.1245Z" fill="#FFC107"/>
<path d="M3.45886 16.0365L13.3154 23.265C15.9824 16.662 22.4414 12 29.9999 12C34.5884 12 38.7629 13.731 41.9414 16.5585L50.4269 8.073C45.0689 3.0795 37.9019 0 29.9999 0C18.4769 0 8.48386 6.5055 3.45886 16.0365Z" fill="#FF3D00"/>
<path d="M30.0001 60.0001C37.7491 60.0001 44.7901 57.0346 50.1136 52.2121L40.8286 44.3551C37.8166 46.6366 34.0726 48.0001 30.0001 48.0001C22.1971 48.0001 15.5716 43.0246 13.0756 36.0811L3.2926 43.6186C8.2576 53.3341 18.3406 60.0001 30.0001 60.0001Z" fill="#4CAF50"/>
<path d="M59.4165 24.1244H57V23.9999H30V35.9999H46.9545C45.7665 39.3554 43.608 42.2489 40.824 44.3564C40.8255 44.3549 40.827 44.3549 40.8285 44.3534L50.1135 52.2104C49.4565 52.8074 60 44.9999 60 29.9999C60 27.9884 59.793 26.0249 59.4165 24.1244Z" fill="#1976D2"/>
</svg>
