<svg width="127" height="29" viewBox="0 0 127 29" fill="none" xmlns="http://www.w3.org/2000/svg">
<g clip-path="url(#clip0_81_608)">
<path d="M31.7877 1H34.7211L36.9342 7.95102L34.298 11.5464C33.8407 11.0137 34.0559 11.5464 34.298 11.5464L29.5869 18.1259H36.155L35.2068 24.9158H17.6069L27.649 8.31952H18.6736L19.745 1H31.7877Z" fill="#212121"/>
<path d="M20.0133 1H11.344L0.856222 14.7751L0 20.55H10.5957L9.87236 24.9209H17.6854L19.4246 14.2452H9.89916L20.0133 1Z" fill="#212121"/>
</g>
<path d="M43.517 5.54545H48.0682L52.875 17.2727H53.0795L57.8864 5.54545H62.4375V23H58.858V11.6392H58.7131L54.196 22.9148H51.7585L47.2415 11.5966H47.0966V23H43.517V5.54545ZM71.3757 23.2557C70.0291 23.2557 68.87 22.983 67.8984 22.4375C66.9325 21.8864 66.1882 21.108 65.6655 20.1023C65.1428 19.0909 64.8814 17.8949 64.8814 16.5142C64.8814 15.1676 65.1428 13.9858 65.6655 12.9688C66.1882 11.9517 66.924 11.1591 67.8729 10.5909C68.8274 10.0227 69.9467 9.73864 71.2308 9.73864C72.0945 9.73864 72.8984 9.87784 73.6428 10.1562C74.3928 10.429 75.0462 10.8409 75.603 11.392C76.1655 11.9432 76.603 12.6364 76.9155 13.4716C77.228 14.3011 77.3842 15.2727 77.3842 16.3864V17.3835H66.3303V15.1335H73.9666C73.9666 14.6108 73.853 14.1477 73.6257 13.7443C73.3984 13.3409 73.0831 13.0256 72.6797 12.7983C72.282 12.5653 71.8189 12.4489 71.2905 12.4489C70.7393 12.4489 70.2507 12.5767 69.8246 12.8324C69.4041 13.0824 69.0746 13.4205 68.8359 13.8466C68.5973 14.267 68.4751 14.7358 68.4695 15.2528V17.392C68.4695 18.0398 68.5888 18.5994 68.8274 19.071C69.0717 19.5426 69.4155 19.9062 69.8587 20.1619C70.3018 20.4176 70.8274 20.5455 71.4354 20.5455C71.8388 20.5455 72.2081 20.4886 72.5433 20.375C72.8786 20.2614 73.1655 20.0909 73.4041 19.8636C73.6428 19.6364 73.8246 19.358 73.9496 19.0284L77.3075 19.25C77.1371 20.0568 76.7876 20.7614 76.2592 21.3636C75.7365 21.9602 75.0604 22.4261 74.2308 22.7614C73.407 23.0909 72.4553 23.2557 71.3757 23.2557ZM83.3842 15.4318V23H79.7536V9.90909H83.2138V12.2188H83.3672C83.657 11.4574 84.1428 10.8551 84.8246 10.4119C85.5064 9.96307 86.3331 9.73864 87.3047 9.73864C88.2138 9.73864 89.0064 9.9375 89.6825 10.3352C90.3587 10.733 90.8842 11.3011 91.2592 12.0398C91.6342 12.7727 91.8217 13.6477 91.8217 14.6648V23H88.1911V15.3125C88.1967 14.5114 87.9922 13.8864 87.5774 13.4375C87.1626 12.983 86.5916 12.7557 85.8643 12.7557C85.3757 12.7557 84.9439 12.8608 84.5689 13.071C84.1996 13.2812 83.9098 13.5881 83.6996 13.9915C83.495 14.3892 83.3899 14.8693 83.3842 15.4318ZM101.646 9.90909V12.6364H93.7628V9.90909H101.646ZM95.5526 6.77273H99.1832V18.9773C99.1832 19.3125 99.2344 19.5739 99.3366 19.7614C99.4389 19.9432 99.581 20.071 99.7628 20.1449C99.9503 20.2187 100.166 20.2557 100.411 20.2557C100.581 20.2557 100.751 20.2415 100.922 20.2131C101.092 20.179 101.223 20.1534 101.314 20.1364L101.885 22.8381C101.703 22.8949 101.447 22.9602 101.118 23.0341C100.788 23.1136 100.388 23.1619 99.9162 23.179C99.0412 23.2131 98.2741 23.0966 97.6151 22.8295C96.9616 22.5625 96.4531 22.1477 96.0895 21.5852C95.7259 21.0227 95.5469 20.3125 95.5526 19.4545V6.77273ZM109.786 23.2557C108.462 23.2557 107.317 22.9744 106.351 22.4119C105.391 21.8437 104.649 21.054 104.126 20.0426C103.604 19.0256 103.342 17.8466 103.342 16.5057C103.342 15.1534 103.604 13.9716 104.126 12.9602C104.649 11.9432 105.391 11.1534 106.351 10.5909C107.317 10.0227 108.462 9.73864 109.786 9.73864C111.109 9.73864 112.251 10.0227 113.212 10.5909C114.178 11.1534 114.922 11.9432 115.445 12.9602C115.967 13.9716 116.229 15.1534 116.229 16.5057C116.229 17.8466 115.967 19.0256 115.445 20.0426C114.922 21.054 114.178 21.8437 113.212 22.4119C112.251 22.9744 111.109 23.2557 109.786 23.2557ZM109.803 20.4432C110.405 20.4432 110.908 20.2727 111.311 19.9318C111.714 19.5852 112.018 19.1136 112.223 18.517C112.433 17.9205 112.538 17.2415 112.538 16.4801C112.538 15.7188 112.433 15.0398 112.223 14.4432C112.018 13.8466 111.714 13.375 111.311 13.0284C110.908 12.6818 110.405 12.5085 109.803 12.5085C109.195 12.5085 108.683 12.6818 108.268 13.0284C107.859 13.375 107.55 13.8466 107.339 14.4432C107.135 15.0398 107.033 15.7188 107.033 16.4801C107.033 17.2415 107.135 17.9205 107.339 18.517C107.55 19.1136 107.859 19.5852 108.268 19.9318C108.683 20.2727 109.195 20.4432 109.803 20.4432ZM118.589 23V9.90909H122.109V12.1932H122.246C122.484 11.3807 122.885 10.767 123.447 10.3523C124.01 9.93182 124.658 9.72159 125.391 9.72159C125.572 9.72159 125.768 9.73295 125.979 9.75568C126.189 9.77841 126.374 9.80966 126.533 9.84943V13.071C126.362 13.0199 126.126 12.9744 125.825 12.9347C125.524 12.8949 125.249 12.875 124.999 12.875C124.464 12.875 123.987 12.9915 123.567 13.2244C123.152 13.4517 122.822 13.7699 122.578 14.179C122.339 14.5881 122.22 15.0597 122.22 15.5938V23H118.589Z" fill="black"/>
<defs>
<clipPath id="clip0_81_608">
<rect width="37" height="24" fill="white" transform="translate(0 1)"/>
</clipPath>
</defs>
</svg>
