<svg width="60" height="60" viewBox="0 0 60 60" fill="none" xmlns="http://www.w3.org/2000/svg">
<path d="M57.8619 19.3733C57.505 18.5082 57.1025 17.6606 56.6543 16.8307C56.4012 16.3597 56.1336 15.8949 55.8514 15.4364C54.6335 13.4633 53.149 11.6001 51.3978 9.84692C45.661 4.11011 38.7353 1.2417 30.6208 1.2417C22.5084 1.2417 15.5837 4.11011 9.84692 9.84692C4.11011 15.5837 1.2417 22.5084 1.2417 30.6208C1.2417 38.7353 4.11011 45.661 9.84692 51.3978C15.5837 57.1326 22.5084 59.9999 30.6208 59.9999C38.7353 59.9999 45.661 57.1326 51.3978 51.3978C54.5577 48.2358 56.8473 44.7139 58.2664 40.8319C59.4221 37.6679 59.9999 34.2642 59.9999 30.6208C59.9999 27.8261 59.6597 25.1714 58.9791 22.6567C58.9024 22.3725 58.8215 22.0903 58.7364 21.8102C58.4812 20.9823 58.1897 20.1701 57.8619 19.3733Z" fill="black" fill-opacity="0.098039"/>
<path d="M57.8682 21.9099C57.7955 21.6256 57.7198 21.3434 57.641 21.0633C57.5777 20.844 57.5113 20.6251 57.4418 20.4067C57.3392 20.0769 57.2303 19.7491 57.115 19.4232C56.7104 18.28 56.2301 17.1669 55.6741 16.0838C55.4334 15.6128 55.1782 15.1481 54.9085 14.6896C53.6366 12.5318 52.0525 10.5037 50.1561 8.60522C45.6331 4.08216 40.3704 1.34239 34.368 0.385912C33.3513 0.224078 32.3129 0.113076 31.2527 0.0529072C30.6344 0.0176357 30.0099 0 29.3791 0C28.794 0 28.2152 0.015561 27.6425 0.0466829C20.2749 0.428445 13.9291 3.28129 8.60522 8.60522C2.86841 14.342 0 21.2667 0 29.3791C0 37.4936 2.86841 44.4193 8.60522 50.1561C12.1237 53.6732 16.0886 56.1121 20.5 57.4729C22.7631 58.1706 25.144 58.5845 27.6425 58.7147C27.6508 58.7147 27.6591 58.7147 27.6674 58.7147C28.1716 58.7396 28.6799 58.7541 29.1924 58.7582C29.2546 58.7582 29.3169 58.7582 29.3791 58.7582C30.0119 58.7582 30.6364 58.7416 31.2527 58.7084C31.3979 58.7001 31.5421 58.6908 31.6853 58.6804C32.9322 58.5912 34.1501 58.4315 35.339 58.2012C35.8286 58.1057 36.3141 57.9989 36.7955 57.8806C41.7999 56.6336 46.2534 54.0588 50.1561 50.1561C53.1812 47.129 55.4085 43.772 56.838 40.0851C57.9895 37.114 58.6234 33.9291 58.7396 30.5306C58.752 30.1489 58.7582 29.765 58.7582 29.3791C58.7582 29.3376 58.7582 29.2961 58.7582 29.2546C58.7582 29.2339 58.7582 29.2131 58.7582 29.1924C58.7437 26.6487 58.447 24.2212 57.8682 21.9099Z" fill="#333333"/>
<path d="M58.7179 31.0535L40.9161 12.7134L35.7219 36.2883L28.4393 26.6373C25.1303 31.8868 21.6477 38.4359 17.9917 46.2846L30.954 58.7241C31.0535 58.7191 31.1531 58.7139 31.2528 58.7085C31.398 58.7002 31.5422 58.6909 31.6854 58.6805C32.9323 58.5913 34.1502 58.4315 35.3391 58.2012C35.8287 58.1058 36.3142 57.9989 36.7956 57.8807C41.8 56.6337 46.2535 54.0589 50.1562 50.1562C53.1813 47.1291 55.4086 43.772 56.8381 40.0851C57.9304 37.2668 58.557 34.2563 58.7179 31.0535Z" fill="black" fill-opacity="0.2"/>
<path d="M17.9917 46.2845L19.1401 46.188C21.078 45.8685 23.0283 45.6413 24.991 45.5064L25.9153 45.4411V30.0886L17.9917 12.5669V46.2845ZM17.9917 12.5669H18.1722L17.9917 12.4767V12.5669Z" fill="#D30B26"/>
<path d="M40.7729 46.2845V12.567H32.8492V28.7442L40.7729 46.2845Z" fill="#A80720"/>
<path d="M39.6215 46.1881L40.773 46.2845L32.8493 28.7442L25.5543 12.567H18.1722H17.9917L25.9153 30.0887L32.8555 45.4442L33.4406 45.4847C35.5217 45.6175 37.5819 45.8519 39.6215 46.1881Z" fill="#FC0E2D"/>
</svg>
